<svg width="21" height="20" viewBox="0 0 21 20" fill="none" xmlns="http://www.w3.org/2000/svg">
<g clip-path="url(#clip0_125_31)">
<path d="M10.5 0.144287C12.3984 0.144287 14.1543 0.522893 15.7676 1.2801C17.3809 2.03732 18.6562 3.06696 19.5938 4.36905C20.5312 5.67113 21 7.0914 21 8.62987C21 10.1683 20.5312 11.5906 19.5938 12.8967C18.6562 14.2028 17.3828 15.2344 15.7734 15.9916C14.1641 16.7489 12.4062 17.1275 10.5 17.1275C9.89844 17.1275 9.27734 17.0834 8.63672 16.9953C5.85547 18.9744 4.375 19.976 4.19531 20.0001C4.10938 20.0321 4.02734 20.0281 3.94922 19.988C3.91797 19.964 3.89453 19.932 3.87891 19.8919C3.86328 19.8518 3.85547 19.8158 3.85547 19.7837V19.7356C3.90234 19.4231 4.25781 18.1211 4.92188 15.8294C3.41406 15.0602 2.2168 14.0405 1.33008 12.7705C0.443359 11.5005 0 10.1203 0 8.62987C0 7.0914 0.46875 5.67113 1.40625 4.36905C2.34375 3.06696 3.61914 2.03732 5.23242 1.2801C6.8457 0.522893 8.60156 0.144287 10.5 0.144287Z" fill="#191600"/>
</g>
<defs>
<clipPath id="clip0_125_31">
<rect width="21" height="20" fill="white"/>
</clipPath>
</defs>
</svg>
