<svg width="215" height="94" viewBox="0 0 215 94" fill="none" xmlns="http://www.w3.org/2000/svg">
<path d="M5.75685 43.174C5.81818 43.082 5.86418 43.0053 5.89485 42.944C5.95618 42.8827 6.00218 42.852 6.03285 42.852C6.06352 42.8213 6.09418 42.806 6.12485 42.806C6.37018 42.806 6.79952 43.2047 7.41285 44.002C7.71952 44.4007 8.01085 44.83 8.28685 45.29C8.56285 45.75 8.83885 46.2407 9.11485 46.762C9.51352 47.5287 9.89685 48.2647 10.2649 48.97C10.6635 49.6447 11.0469 50.2733 11.4149 50.856C11.7829 51.408 12.0742 51.868 12.2889 52.236C12.5035 52.5733 12.6415 52.8033 12.7029 52.926C12.7949 53.0487 12.8715 53.1407 12.9329 53.202C13.1782 53.386 13.4542 53.2633 13.7609 52.834C13.9142 52.6193 14.1442 52.236 14.4509 51.684C14.7575 51.1013 15.1255 50.35 15.5549 49.43C16.4442 47.6207 17.7169 45.796 19.3729 43.956C19.7102 43.5573 20.0475 43.3887 20.3849 43.45C20.4462 43.4807 20.5075 43.5113 20.5689 43.542C20.6302 43.5727 20.6915 43.6187 20.7529 43.68C20.8142 43.7107 20.8602 43.772 20.8909 43.864C20.9522 43.9253 20.9982 44.002 21.0289 44.094C21.0902 44.186 21.1362 44.278 21.1669 44.37C21.2282 44.646 21.2895 45.0447 21.3509 45.566C21.4429 46.0567 21.5349 46.6853 21.6269 47.452C21.6269 47.5133 21.6269 47.5747 21.6269 47.636C21.6269 47.6973 21.6269 47.7587 21.6269 47.82C21.6269 47.8813 21.6269 47.9427 21.6269 48.004C21.6575 48.0653 21.6729 48.142 21.6729 48.234C21.6729 48.2953 21.6729 48.372 21.6729 48.464C21.7035 48.5253 21.7189 48.602 21.7189 48.694C21.7495 49.1847 21.7649 49.614 21.7649 49.982C21.7955 50.35 21.8262 50.718 21.8569 51.086C21.8875 51.4233 21.9029 51.684 21.9029 51.868V51.914C22.2402 55.9927 22.0869 58.4 21.4429 59.136C21.4122 59.1973 21.3662 59.2587 21.3049 59.32C21.2435 59.3507 21.1975 59.3813 21.1669 59.412C21.0442 59.4733 20.9215 59.4887 20.7989 59.458C20.7069 59.3967 20.6149 59.2893 20.5229 59.136C20.4615 59.0133 20.4002 58.4153 20.3389 57.342C20.3082 56.238 20.2775 54.7047 20.2469 52.742C20.1549 48.8473 20.0782 46.7007 20.0169 46.302C19.9862 46.21 19.9402 46.1333 19.8789 46.072C19.8482 45.98 19.7869 45.9187 19.6949 45.888C19.6335 45.8573 19.5569 45.842 19.4649 45.842C19.3422 45.9033 19.2655 45.98 19.2349 46.072C19.2349 46.1027 19.1582 46.2253 19.0049 46.44C18.8822 46.6547 18.7135 46.9307 18.4989 47.268C17.9162 48.004 17.0269 49.614 15.8309 52.098C15.0335 53.7233 14.4815 54.7813 14.1749 55.272C14.0522 55.4867 13.9295 55.6707 13.8069 55.824C13.6842 55.9467 13.5615 56.0233 13.4389 56.054C13.1322 56.1153 12.9022 56.0387 12.7489 55.824C12.5342 55.5173 12.2582 55.134 11.9209 54.674C11.6142 54.1833 11.2615 53.6007 10.8629 52.926C10.4642 52.2513 10.0042 51.5 9.48285 50.672C9.36018 50.4267 9.23752 50.2273 9.11485 50.074C8.99218 49.89 8.88485 49.7213 8.79285 49.568C8.70085 49.476 8.60885 49.3533 8.51685 49.2C8.42485 49.016 8.31752 48.8167 8.19485 48.602C8.10285 48.3567 7.99552 48.0807 7.87285 47.774C7.71952 47.3447 7.58152 46.992 7.45885 46.716C7.33618 46.4093 7.21352 46.1947 7.09085 46.072C6.96818 45.9187 6.86085 45.8573 6.76885 45.888C6.70752 45.9187 6.64618 45.9953 6.58485 46.118C6.52352 46.2713 6.40085 47.1453 6.21685 48.74C5.75685 52.6347 5.38885 54.8273 5.11285 55.318C5.02085 55.502 4.92885 55.9007 4.83685 56.514C4.80618 56.7593 4.76018 56.9893 4.69885 57.204C4.63752 57.4187 4.56085 57.618 4.46885 57.802C4.37685 57.9553 4.28485 58.078 4.19285 58.17C4.10085 58.2313 4.00885 58.262 3.91685 58.262C3.70218 58.262 3.56418 58.0933 3.50285 57.756C3.50285 57.572 3.50285 57.3727 3.50285 57.158C3.53352 56.9433 3.57952 56.7287 3.64085 56.514C3.79418 56.0233 3.96285 55.1033 4.14685 53.754C4.33085 52.6193 4.48418 51.6073 4.60685 50.718C4.63752 50.5647 4.66818 50.3807 4.69885 50.166C4.72952 49.9207 4.76018 49.6753 4.79085 49.43C4.85218 49.154 4.89818 48.8473 4.92885 48.51C4.95952 48.1727 4.99018 47.82 5.02085 47.452C5.20485 45.1827 5.45018 43.7567 5.75685 43.174ZM28.0022 48.51C28.4928 47.4367 28.8915 46.716 29.1982 46.348L30.1642 45.06C30.5015 44.5693 31.0075 44.14 31.6822 43.772C32.2035 43.496 32.5715 43.3427 32.7862 43.312C33.0315 43.2813 33.5068 43.3427 34.2122 43.496C34.3348 43.5267 34.4422 43.5573 34.5342 43.588C34.6568 43.6187 34.7795 43.68 34.9022 43.772C35.0555 43.8333 35.2088 43.91 35.3622 44.002C35.5768 44.1553 35.7762 44.2933 35.9602 44.416C36.1442 44.5387 36.2975 44.6613 36.4202 44.784C36.5122 44.9067 36.6502 45.1367 36.8342 45.474C37.0182 45.7807 37.2482 46.1947 37.5242 46.716C37.6775 47.084 37.8155 47.406 37.9382 47.682C38.0915 47.958 38.2142 48.2033 38.3062 48.418C38.3982 48.602 38.4595 48.7707 38.4902 48.924H38.5362C38.6282 49.3227 38.6435 49.7213 38.5822 50.12C38.5515 50.3347 38.5055 50.5187 38.4442 50.672C38.3828 50.8253 38.3062 50.948 38.2142 51.04C37.9995 51.224 37.6622 51.316 37.2022 51.316C36.5582 51.2853 35.5308 51.3007 34.1202 51.362C32.7095 51.3927 31.4215 51.454 30.2562 51.546C29.7042 51.5767 29.2595 51.6073 28.9222 51.638C28.6155 51.638 28.4468 51.6533 28.4162 51.684C28.2935 51.8373 28.2628 52.2973 28.3242 53.064C28.3855 53.892 28.5082 54.5207 28.6922 54.95C28.8762 55.3793 29.1982 55.8547 29.6582 56.376C30.0262 56.836 30.3482 57.158 30.6242 57.342C30.9308 57.4953 31.4062 57.6793 32.0502 57.894C32.5102 58.0473 33.3075 58.124 34.4422 58.124C35.5768 58.0933 36.2975 58.0013 36.6042 57.848C36.6962 57.7867 36.7882 57.7407 36.8802 57.71C36.9722 57.6793 37.0795 57.6487 37.2022 57.618C37.3248 57.5873 37.4475 57.572 37.5702 57.572C37.7235 57.5413 37.8768 57.5107 38.0302 57.48C38.2448 57.4493 38.4288 57.434 38.5822 57.434C38.7662 57.4033 38.9195 57.3727 39.0422 57.342C39.1955 57.3113 39.3182 57.296 39.4102 57.296C39.4715 57.2653 39.5328 57.2653 39.5942 57.296C39.6555 57.296 39.7015 57.3113 39.7322 57.342C39.7935 57.3727 39.8242 57.48 39.8242 57.664C39.8242 58.0013 39.7168 58.2007 39.5022 58.262L39.2722 58.308C39.2415 58.3387 39.1955 58.3693 39.1342 58.4C39.1035 58.4 39.0575 58.4153 38.9962 58.446C38.9348 58.446 38.8735 58.4613 38.8122 58.492C38.6588 58.5227 38.5208 58.5687 38.3982 58.63C38.1528 58.722 37.9075 58.814 37.6622 58.906C37.4475 58.9673 37.2482 59.0287 37.0642 59.09C36.8802 59.1513 36.7115 59.1973 36.5582 59.228C36.4355 59.2587 36.3128 59.2893 36.1902 59.32C36.0982 59.3507 35.9908 59.3813 35.8682 59.412C35.7762 59.412 35.6688 59.4273 35.5462 59.458C35.4235 59.458 35.2855 59.458 35.1322 59.458C35.0095 59.458 34.8715 59.458 34.7182 59.458C34.5648 59.458 34.4115 59.458 34.2582 59.458C30.8542 59.458 28.6002 58.2927 27.4962 55.962C27.1895 55.318 27.0055 54.4747 26.9442 53.432C26.8828 52.3587 26.8215 51.6993 26.7602 51.454C26.6988 51.2393 26.5608 51.132 26.3462 51.132C26.1928 51.132 26.0548 51.1013 25.9322 51.04C25.8095 50.9787 25.6868 50.902 25.5642 50.81C25.3802 50.626 25.2882 50.5033 25.2882 50.442L25.5182 50.074C25.8555 49.6753 26.2235 49.66 26.6222 50.028C26.8062 50.1813 26.9595 50.2273 27.0822 50.166C27.2355 50.1047 27.5422 49.5527 28.0022 48.51ZM32.4182 44.83C32.3568 44.8607 32.2955 44.8913 32.2342 44.922C32.1728 44.9527 32.0962 44.9987 32.0042 45.06C31.9428 45.0907 31.8508 45.1673 31.7282 45.29C31.6362 45.382 31.5135 45.5047 31.3602 45.658C31.1762 45.8727 31.0075 46.072 30.8542 46.256C30.7315 46.4093 30.6242 46.5627 30.5322 46.716C30.4402 46.8387 30.3788 46.946 30.3482 47.038C30.3175 47.0993 30.2715 47.176 30.2102 47.268C30.1795 47.3293 30.1335 47.406 30.0722 47.498C30.0415 47.59 29.9955 47.682 29.9342 47.774C29.2902 48.9087 29.0295 49.5987 29.1522 49.844C29.1828 49.9973 30.4555 50.0433 32.9702 49.982C35.4848 49.9513 36.8342 49.9053 37.0182 49.844C37.1715 49.7827 37.2482 49.6907 37.2482 49.568C37.2482 49.4453 37.1715 49.0007 37.0182 48.234C36.8648 47.682 36.4968 47.038 35.9142 46.302C35.3622 45.566 34.8562 45.1213 34.3962 44.968C34.1508 44.8453 33.7368 44.784 33.1542 44.784C32.8168 44.784 32.5715 44.7993 32.4182 44.83ZM45.7445 48.51C46.2352 47.4367 46.6338 46.716 46.9405 46.348L47.9065 45.06C48.2438 44.5693 48.7498 44.14 49.4245 43.772C49.9458 43.496 50.3138 43.3427 50.5285 43.312C50.7738 43.2813 51.2492 43.3427 51.9545 43.496C52.0772 43.5267 52.1845 43.5573 52.2765 43.588C52.3992 43.6187 52.5218 43.68 52.6445 43.772C52.7978 43.8333 52.9512 43.91 53.1045 44.002C53.3192 44.1553 53.5185 44.2933 53.7025 44.416C53.8865 44.5387 54.0398 44.6613 54.1625 44.784C54.2545 44.9067 54.3925 45.1367 54.5765 45.474C54.7605 45.7807 54.9905 46.1947 55.2665 46.716C55.4198 47.084 55.5578 47.406 55.6805 47.682C55.8338 47.958 55.9565 48.2033 56.0485 48.418C56.1405 48.602 56.2018 48.7707 56.2325 48.924H56.2785C56.3705 49.3227 56.3858 49.7213 56.3245 50.12C56.2938 50.3347 56.2478 50.5187 56.1865 50.672C56.1252 50.8253 56.0485 50.948 55.9565 51.04C55.7418 51.224 55.4045 51.316 54.9445 51.316C54.3005 51.2853 53.2732 51.3007 51.8625 51.362C50.4518 51.3927 49.1638 51.454 47.9985 51.546C47.4465 51.5767 47.0018 51.6073 46.6645 51.638C46.3578 51.638 46.1892 51.6533 46.1585 51.684C46.0358 51.8373 46.0052 52.2973 46.0665 53.064C46.1278 53.892 46.2505 54.5207 46.4345 54.95C46.6185 55.3793 46.9405 55.8547 47.4005 56.376C47.7685 56.836 48.0905 57.158 48.3665 57.342C48.6732 57.4953 49.1485 57.6793 49.7925 57.894C50.2525 58.0473 51.0498 58.124 52.1845 58.124C53.3192 58.0933 54.0398 58.0013 54.3465 57.848C54.4385 57.7867 54.5305 57.7407 54.6225 57.71C54.7145 57.6793 54.8218 57.6487 54.9445 57.618C55.0672 57.5873 55.1898 57.572 55.3125 57.572C55.4658 57.5413 55.6192 57.5107 55.7725 57.48C55.9872 57.4493 56.1712 57.434 56.3245 57.434C56.5085 57.4033 56.6618 57.3727 56.7845 57.342C56.9378 57.3113 57.0605 57.296 57.1525 57.296C57.2138 57.2653 57.2752 57.2653 57.3365 57.296C57.3978 57.296 57.4438 57.3113 57.4745 57.342C57.5358 57.3727 57.5665 57.48 57.5665 57.664C57.5665 58.0013 57.4592 58.2007 57.2445 58.262L57.0145 58.308C56.9838 58.3387 56.9378 58.3693 56.8765 58.4C56.8458 58.4 56.7998 58.4153 56.7385 58.446C56.6772 58.446 56.6158 58.4613 56.5545 58.492C56.4012 58.5227 56.2632 58.5687 56.1405 58.63C55.8952 58.722 55.6498 58.814 55.4045 58.906C55.1898 58.9673 54.9905 59.0287 54.8065 59.09C54.6225 59.1513 54.4538 59.1973 54.3005 59.228C54.1778 59.2587 54.0552 59.2893 53.9325 59.32C53.8405 59.3507 53.7332 59.3813 53.6105 59.412C53.5185 59.412 53.4112 59.4273 53.2885 59.458C53.1658 59.458 53.0278 59.458 52.8745 59.458C52.7518 59.458 52.6138 59.458 52.4605 59.458C52.3072 59.458 52.1538 59.458 52.0005 59.458C48.5965 59.458 46.3425 58.2927 45.2385 55.962C44.9318 55.318 44.7478 54.4747 44.6865 53.432C44.6252 52.3587 44.5638 51.6993 44.5025 51.454C44.4412 51.2393 44.3032 51.132 44.0885 51.132C43.9352 51.132 43.7972 51.1013 43.6745 51.04C43.5518 50.9787 43.4292 50.902 43.3065 50.81C43.1225 50.626 43.0305 50.5033 43.0305 50.442L43.2605 50.074C43.5978 49.6753 43.9658 49.66 44.3645 50.028C44.5485 50.1813 44.7018 50.2273 44.8245 50.166C44.9778 50.1047 45.2845 49.5527 45.7445 48.51ZM50.1605 44.83C50.0992 44.8607 50.0378 44.8913 49.9765 44.922C49.9152 44.9527 49.8385 44.9987 49.7465 45.06C49.6852 45.0907 49.5932 45.1673 49.4705 45.29C49.3785 45.382 49.2558 45.5047 49.1025 45.658C48.9185 45.8727 48.7498 46.072 48.5965 46.256C48.4738 46.4093 48.3665 46.5627 48.2745 46.716C48.1825 46.8387 48.1212 46.946 48.0905 47.038C48.0598 47.0993 48.0138 47.176 47.9525 47.268C47.9218 47.3293 47.8758 47.406 47.8145 47.498C47.7838 47.59 47.7378 47.682 47.6765 47.774C47.0325 48.9087 46.7718 49.5987 46.8945 49.844C46.9252 49.9973 48.1978 50.0433 50.7125 49.982C53.2272 49.9513 54.5765 49.9053 54.7605 49.844C54.9138 49.7827 54.9905 49.6907 54.9905 49.568C54.9905 49.4453 54.9138 49.0007 54.7605 48.234C54.6072 47.682 54.2392 47.038 53.6565 46.302C53.1045 45.566 52.5985 45.1213 52.1385 44.968C51.8932 44.8453 51.4792 44.784 50.8965 44.784C50.5592 44.784 50.3138 44.7993 50.1605 44.83ZM66.6149 49.246C66.7375 49.2153 66.8449 49.1693 66.9369 49.108C67.0289 49.0467 67.1209 48.9547 67.2129 48.832C67.3969 48.5253 67.4275 48.1727 67.3049 47.774C67.2435 47.5287 67.1975 47.2527 67.1669 46.946C67.1362 46.6393 67.1362 46.2867 67.1669 45.888C67.1975 44.968 67.2129 44.4467 67.2129 44.324C67.2129 44.0787 67.2282 43.864 67.2589 43.68C67.2589 43.588 67.2895 43.0667 67.3509 42.116C67.4122 41.2267 67.4735 40.7207 67.5349 40.598C67.5349 40.506 67.5655 40.4447 67.6269 40.414C67.7189 40.3833 67.8262 40.368 67.9489 40.368C68.1022 40.368 68.2249 40.4293 68.3169 40.552C68.4395 40.644 68.5315 40.7973 68.5929 41.012C68.6542 41.2267 68.6849 41.5027 68.6849 41.84C68.7155 42.1467 68.7309 42.5147 68.7309 42.944C68.6082 46.7467 68.7462 48.8013 69.1449 49.108C69.1449 49.108 69.1602 49.1233 69.1909 49.154C69.2215 49.1847 69.2522 49.2153 69.2829 49.246C69.3135 49.246 69.3442 49.2613 69.3749 49.292C69.4362 49.292 69.4975 49.3073 69.5589 49.338C69.6202 49.338 69.6815 49.3533 69.7429 49.384C69.8042 49.384 69.8655 49.384 69.9269 49.384C70.0189 49.384 70.0955 49.3993 70.1569 49.43C70.2489 49.43 70.3409 49.4453 70.4329 49.476C70.9542 49.5373 71.4142 49.5987 71.8129 49.66C72.2115 49.7213 72.5489 49.7673 72.8249 49.798C73.1009 49.8287 73.3155 49.8593 73.4689 49.89C74.6955 50.0433 75.4315 50.1967 75.6769 50.35C75.7689 50.4113 75.8762 50.4573 75.9989 50.488C76.1522 50.488 76.2902 50.488 76.4129 50.488C76.6275 50.488 76.7962 50.58 76.9189 50.764C77.0415 50.9173 77.0569 51.086 76.9649 51.27C76.9035 51.362 76.1675 51.3773 74.7569 51.316C73.3769 51.2547 72.5949 51.178 72.4109 51.086C72.2882 51.0247 72.0735 50.9787 71.7669 50.948C71.4602 50.8867 71.0462 50.8253 70.5249 50.764L68.9149 50.718L68.6849 51.362C68.5009 51.9447 68.4702 52.9413 68.5929 54.352C68.6542 55.088 68.7309 55.7013 68.8229 56.192C68.9149 56.652 69.0375 57.02 69.1909 57.296C69.2522 57.388 69.3135 57.4647 69.3749 57.526C69.4362 57.5873 69.5129 57.6333 69.6049 57.664C69.6969 57.664 69.8809 57.664 70.1569 57.664C70.4329 57.664 70.8009 57.6487 71.2609 57.618C71.9662 57.5567 72.5642 57.5107 73.0549 57.48C73.5455 57.4187 73.9595 57.3573 74.2969 57.296C76.1369 57.02 77.2102 56.9893 77.5169 57.204C77.7009 57.3573 77.7929 57.4647 77.7929 57.526C77.7929 57.5567 77.7009 57.6793 77.5169 57.894C77.3942 58.0167 77.2102 58.124 76.9649 58.216C76.7195 58.2773 76.4435 58.3387 76.1369 58.4C75.3395 58.5227 74.8335 58.6453 74.6189 58.768C74.2509 58.8907 73.7909 58.952 73.2389 58.952C72.6562 58.9827 72.1502 59.0593 71.7209 59.182C71.2609 59.366 70.8162 59.4733 70.3869 59.504C69.9575 59.504 69.5282 59.4427 69.0989 59.32C68.7002 59.1667 68.3629 58.9673 68.0869 58.722C67.8415 58.4767 67.6729 58.17 67.5809 57.802C67.4889 57.4953 67.3662 57.0967 67.2129 56.606C67.1515 56.4527 67.0902 56.1153 67.0289 55.594C66.9982 55.042 66.9829 54.3213 66.9829 53.432V50.718L64.1769 50.672C62.2449 50.6413 61.1715 50.534 60.9569 50.35C60.7729 50.1353 60.7115 49.9513 60.7729 49.798C60.8649 49.614 61.2022 49.4913 61.7849 49.43C62.3982 49.338 63.3029 49.292 64.4989 49.292C65.6949 49.292 66.4002 49.2767 66.6149 49.246ZM96.7078 55.916C96.7998 55.7013 97.0298 55.64 97.3978 55.732C97.6125 55.732 97.7352 55.6707 97.7658 55.548C97.7658 55.5173 97.7658 55.456 97.7658 55.364C97.7658 55.2413 97.7505 55.088 97.7198 54.904C97.6892 54.72 97.6585 54.5053 97.6278 54.26C97.2905 52.5427 97.0758 50.442 96.9838 47.958C96.8612 45.7193 96.7845 44.4313 96.7538 44.094C96.7232 43.6033 96.7998 42.944 96.9838 42.116C97.1372 41.288 97.2905 40.828 97.4438 40.736C97.4745 40.736 97.5052 40.736 97.5358 40.736C97.5972 40.7053 97.6892 40.6747 97.8118 40.644C97.9652 40.6133 98.0572 40.6287 98.0878 40.69C98.2718 40.874 98.3332 41.1193 98.2718 41.426C98.2105 41.6407 98.1952 41.7787 98.2258 41.84C98.2565 41.84 98.3025 41.84 98.3638 41.84C98.4252 41.8093 98.5018 41.7787 98.5938 41.748C98.8392 41.7173 99.1305 41.6867 99.4678 41.656C99.8358 41.5947 100.265 41.564 100.756 41.564C101.737 41.5333 102.412 41.5793 102.78 41.702C103.209 41.794 103.684 42.0393 104.206 42.438C104.758 42.806 105.126 43.128 105.31 43.404C105.432 43.6493 105.494 44.1247 105.494 44.83C105.524 45.5047 105.463 46.0107 105.31 46.348C105.095 46.9613 104.574 47.7433 103.746 48.694C103.623 48.8167 103.531 48.9393 103.47 49.062C103.408 49.154 103.393 49.2307 103.424 49.292C103.454 49.4453 103.638 49.6293 103.976 49.844C104.497 50.12 105.034 50.5647 105.586 51.178C105.8 51.3927 105.984 51.6073 106.138 51.822C106.291 52.006 106.429 52.19 106.552 52.374C106.674 52.558 106.782 52.7267 106.874 52.88C107.426 54.0147 107.472 55.2873 107.012 56.698C106.889 57.0353 106.797 57.296 106.736 57.48C106.705 57.5413 106.674 57.6027 106.644 57.664C106.613 57.7253 106.567 57.7867 106.506 57.848C106.475 57.8787 106.444 57.9247 106.414 57.986C106.352 58.0473 106.276 58.124 106.184 58.216C106.092 58.2773 105.984 58.354 105.862 58.446C105.616 58.5993 105.386 58.7373 105.172 58.86C104.988 58.9827 104.788 59.0747 104.574 59.136C104.359 59.1973 104.129 59.2587 103.884 59.32C103.669 59.3507 103.393 59.3813 103.056 59.412C101.338 59.6267 99.8972 59.2587 98.7318 58.308C98.3945 58.0013 98.0265 57.6947 97.6278 57.388C96.8918 56.836 96.5852 56.3453 96.7078 55.916ZM103.976 46.44C104.068 46.3173 104.129 46.1487 104.16 45.934C104.221 45.6887 104.252 45.4127 104.252 45.106C104.282 44.7687 104.267 44.4927 104.206 44.278C104.175 44.0327 104.129 43.864 104.068 43.772C103.884 43.5267 103.546 43.2967 103.056 43.082C102.473 42.806 101.645 42.6987 100.572 42.76C100.05 42.7907 99.6212 42.852 99.2838 42.944C98.9465 43.036 98.6858 43.1587 98.5018 43.312C98.4712 43.3733 98.4405 43.6493 98.4098 44.14C98.4098 44.6307 98.4252 45.3207 98.4558 46.21C98.4865 46.486 98.5018 46.7467 98.5018 46.992C98.5325 47.2067 98.5478 47.4213 98.5478 47.636C98.5785 47.82 98.5938 47.9887 98.5938 48.142C98.6245 48.2953 98.6398 48.4333 98.6398 48.556C98.6705 48.648 98.6858 48.74 98.6858 48.832C98.7165 48.8933 98.7318 48.9393 98.7318 48.97C98.7625 49.0007 98.7932 49.016 98.8238 49.016C98.9772 49.108 99.4985 49.0927 100.388 48.97C101.829 48.8167 102.826 48.2953 103.378 47.406C103.47 47.222 103.669 46.9 103.976 46.44ZM105.724 53.524C105.57 53.1867 105.371 52.8647 105.126 52.558C104.88 52.2513 104.589 51.96 104.252 51.684C103.577 51.132 103.163 50.7947 103.01 50.672C102.887 50.6413 102.703 50.6107 102.458 50.58C102.212 50.5187 101.89 50.488 101.492 50.488C100.725 50.4267 100.112 50.442 99.6518 50.534H99.6058C99.1458 50.5953 98.8392 50.6873 98.6858 50.81C98.6245 50.8713 98.5938 50.9633 98.5938 51.086C98.5938 51.2087 98.6245 51.3773 98.6858 51.592C98.7778 51.9293 98.9005 52.7267 99.0538 53.984C99.1765 55.088 99.2685 55.7167 99.3298 55.87C99.4218 55.9927 99.4985 56.2687 99.5598 56.698C99.5598 56.7593 99.5598 56.836 99.5598 56.928C99.5905 56.9893 99.6212 57.0507 99.6518 57.112C99.6825 57.1733 99.7132 57.2347 99.7438 57.296C99.7745 57.3573 99.8205 57.4033 99.8818 57.434C99.9125 57.4647 99.9432 57.4953 99.9738 57.526C100.035 57.5567 100.096 57.5873 100.158 57.618C100.219 57.6487 100.28 57.6793 100.342 57.71C100.403 57.7407 100.464 57.7713 100.526 57.802C100.587 57.802 100.664 57.8173 100.756 57.848C100.848 57.848 100.94 57.8633 101.032 57.894C101.124 57.894 101.216 57.9093 101.308 57.94C101.4 57.94 101.507 57.9553 101.63 57.986C101.752 57.986 101.875 57.986 101.998 57.986C102.12 57.986 102.243 57.986 102.366 57.986C103.102 58.0473 103.562 58.0627 103.746 58.032C103.96 58.0013 104.221 57.8633 104.528 57.618C105.356 57.0353 105.877 56.2687 106.092 55.318C106.122 55.134 106.138 54.9807 106.138 54.858C106.168 54.7047 106.168 54.582 106.138 54.49C106.107 54.3367 105.969 54.0147 105.724 53.524ZM116.291 45.336C116.444 45.3053 116.598 45.29 116.751 45.29C116.935 45.29 117.104 45.3053 117.257 45.336C117.441 45.336 117.625 45.3667 117.809 45.428C118.024 45.4587 118.238 45.5047 118.453 45.566C118.514 45.5967 118.576 45.6273 118.637 45.658C118.729 45.6887 118.821 45.7193 118.913 45.75C119.005 45.7807 119.082 45.8267 119.143 45.888C119.235 45.9187 119.327 45.9647 119.419 46.026C119.756 46.2407 120.078 46.4707 120.385 46.716C120.722 46.9307 120.998 47.1607 121.213 47.406C121.458 47.6513 121.596 47.8507 121.627 48.004V48.05C121.658 48.1113 121.704 48.2187 121.765 48.372C121.826 48.5253 121.903 48.74 121.995 49.016C122.21 49.4453 122.348 50.1967 122.409 51.27C122.47 52.3127 122.44 53.1407 122.317 53.754C122.01 54.9807 121.474 56.1 120.707 57.112C120.4 57.572 120.048 57.94 119.649 58.216C119.281 58.492 118.836 58.722 118.315 58.906C117.794 59.09 117.104 59.274 116.245 59.458C115.57 59.5807 114.589 59.32 113.301 58.676C112.504 58.308 111.814 57.6487 111.231 56.698C110.679 55.7167 110.449 54.8273 110.541 54.03C110.786 52.4047 111.246 50.7793 111.921 49.154C112.136 48.51 112.35 48.0193 112.565 47.682C112.78 47.3447 113.102 46.9767 113.531 46.578C113.715 46.4247 113.884 46.2867 114.037 46.164C114.221 46.0413 114.374 45.934 114.497 45.842C114.65 45.75 114.788 45.6733 114.911 45.612C115.064 45.5507 115.187 45.52 115.279 45.52L115.601 45.474C115.662 45.4433 115.724 45.428 115.785 45.428C115.846 45.428 115.892 45.4127 115.923 45.382C116.015 45.382 116.092 45.382 116.153 45.382C116.214 45.382 116.26 45.3667 116.291 45.336ZM119.097 47.406C118.79 47.1913 118.499 47.038 118.223 46.946C117.978 46.8233 117.748 46.762 117.533 46.762C117.196 46.762 116.996 46.7773 116.935 46.808C116.904 46.8387 116.889 46.8847 116.889 46.946C116.889 46.9767 116.889 47.038 116.889 47.13C116.92 47.1913 116.935 47.268 116.935 47.36C116.966 47.6053 116.981 47.7893 116.981 47.912C116.981 48.0347 116.966 48.1113 116.935 48.142C116.935 48.142 116.904 48.142 116.843 48.142C116.782 48.142 116.674 48.1267 116.521 48.096C116.398 48.0347 116.245 47.958 116.061 47.866C115.908 47.8047 115.77 47.7587 115.647 47.728C115.524 47.6973 115.402 47.682 115.279 47.682C115.156 47.6513 115.049 47.6513 114.957 47.682C114.865 47.682 114.773 47.6973 114.681 47.728C114.252 47.912 113.838 48.3873 113.439 49.154C113.224 49.522 113.04 49.9207 112.887 50.35C112.764 50.7793 112.642 51.224 112.519 51.684C112.519 51.776 112.504 51.8833 112.473 52.006C112.473 52.098 112.458 52.19 112.427 52.282C112.396 52.374 112.366 52.466 112.335 52.558C112.335 52.6193 112.32 52.696 112.289 52.788C112.289 52.8493 112.274 52.9107 112.243 52.972C112.243 53.0333 112.228 53.0947 112.197 53.156C112.136 53.3707 112.12 53.6313 112.151 53.938C112.212 54.214 112.304 54.536 112.427 54.904C112.672 55.6707 112.979 56.2687 113.347 56.698C114.114 57.5873 114.957 58.032 115.877 58.032C116.46 58.032 117.134 57.8633 117.901 57.526C118.698 57.158 119.296 56.7593 119.695 56.33C119.848 56.1767 119.986 56.008 120.109 55.824C120.232 55.64 120.324 55.456 120.385 55.272C120.477 55.0573 120.554 54.8427 120.615 54.628C120.676 54.4133 120.722 54.168 120.753 53.892C120.784 53.616 120.814 53.3093 120.845 52.972C120.876 52.6347 120.891 52.2667 120.891 51.868C120.891 51.224 120.876 50.7487 120.845 50.442C120.845 50.1047 120.799 49.8287 120.707 49.614C120.646 49.3993 120.554 49.154 120.431 48.878C120.308 48.694 120.17 48.5253 120.017 48.372C119.894 48.188 119.741 48.0193 119.557 47.866C119.404 47.682 119.25 47.5287 119.097 47.406ZM142.514 45.014C142.636 45.3513 142.698 46.8233 142.698 49.43C142.667 51.9753 142.575 53.8 142.422 54.904C142.33 55.4253 142.207 55.8853 142.054 56.284C141.931 56.652 141.762 56.9587 141.548 57.204C141.302 57.5107 140.919 57.6793 140.398 57.71C139.907 57.71 139.432 57.5873 138.972 57.342C138.88 57.2807 138.757 57.204 138.604 57.112C138.45 56.9893 138.282 56.8513 138.098 56.698C137.73 56.3913 137.408 56.1 137.132 55.824C136.856 55.5173 136.718 55.3333 136.718 55.272C136.718 55.18 136.564 54.9653 136.258 54.628C135.982 54.3827 135.614 53.8 135.154 52.88C134.724 51.96 134.341 51.0707 134.004 50.212C133.666 49.5067 133.467 49.154 133.406 49.154C133.222 49.154 132.961 49.9973 132.624 51.684C132.532 52.2973 132.44 52.696 132.348 52.88C132.317 52.972 132.256 53.156 132.164 53.432C132.102 53.6773 132.01 54.03 131.888 54.49C131.182 57.71 130.416 59.366 129.588 59.458C129.465 59.4887 129.342 59.4733 129.22 59.412C129.097 59.3507 128.974 59.2433 128.852 59.09C128.729 58.906 128.622 58.7067 128.53 58.492C128.468 58.2773 128.422 58.0473 128.392 57.802C128.361 57.6487 128.33 57.5107 128.3 57.388C128.269 57.2347 128.223 57.0967 128.162 56.974C128.131 56.8207 128.085 56.6827 128.024 56.56C127.993 56.4067 127.947 56.2533 127.886 56.1C127.548 55.1493 127.318 54.4593 127.196 54.03C127.165 53.938 127.134 53.8307 127.104 53.708C127.104 53.5547 127.088 53.386 127.058 53.202C127.027 53.018 126.996 52.834 126.966 52.65C126.935 52.4353 126.904 52.2053 126.874 51.96C126.72 50.672 126.567 49.7673 126.414 49.246C126.26 48.786 126.184 48.2493 126.184 47.636C126.184 47.5133 126.184 47.3907 126.184 47.268C126.184 47.1147 126.168 46.9767 126.138 46.854C126.107 46.7313 126.076 46.6087 126.046 46.486C126.015 46.3633 125.969 46.2407 125.908 46.118C125.846 45.9647 125.785 45.842 125.724 45.75C125.693 45.6273 125.678 45.5507 125.678 45.52C125.678 45.428 125.754 45.3207 125.908 45.198C126.092 44.9833 126.276 44.968 126.46 45.152C126.736 45.428 127.058 46.2407 127.426 47.59C127.487 47.866 127.548 48.142 127.61 48.418C127.671 48.694 127.732 48.9853 127.794 49.292C127.855 49.568 127.901 49.8593 127.932 50.166C127.993 50.4727 128.054 50.7947 128.116 51.132C128.177 51.4387 128.223 51.7607 128.254 52.098C128.346 52.9873 128.468 53.6007 128.622 53.938C128.775 54.2447 128.913 54.6127 129.036 55.042C129.189 55.4407 129.327 55.9007 129.45 56.422C129.511 56.79 129.603 56.974 129.726 56.974C129.787 56.974 129.848 56.928 129.91 56.836C129.971 56.744 130.063 56.5907 130.186 56.376C130.37 56.008 130.462 55.732 130.462 55.548C130.462 55.3027 130.554 54.8427 130.738 54.168C130.922 53.5547 131.29 52.006 131.842 49.522C132.026 48.6327 132.21 47.9427 132.394 47.452C132.578 46.9613 132.746 46.6547 132.9 46.532C133.084 46.44 133.298 46.4553 133.544 46.578C133.636 46.6393 133.743 46.716 133.866 46.808C133.988 46.9 134.111 47.0227 134.234 47.176C134.264 47.2067 134.295 47.2527 134.326 47.314C134.356 47.3753 134.387 47.4367 134.418 47.498C134.479 47.5287 134.525 47.5747 134.556 47.636C134.586 47.6667 134.602 47.7127 134.602 47.774C134.632 47.8353 134.663 47.8967 134.694 47.958C134.724 47.9887 134.74 48.0347 134.74 48.096C136.396 52.4813 138.052 55.088 139.708 55.916C140.045 56.1 140.306 56.146 140.49 56.054C140.674 55.9313 140.766 55.686 140.766 55.318C140.766 55.226 140.766 55.134 140.766 55.042C140.796 54.95 140.827 54.858 140.858 54.766C140.888 54.6433 140.919 54.536 140.95 54.444C140.98 54.3213 141.011 54.1987 141.042 54.076C141.226 53.5853 141.333 52.006 141.364 49.338C141.364 47.3447 141.379 46.164 141.41 45.796C141.44 45.428 141.563 45.1827 141.778 45.06L142.238 44.784C142.391 44.7533 142.483 44.83 142.514 45.014ZM146.534 38.022C146.595 37.746 146.702 37.5313 146.856 37.378C147.009 37.2247 147.132 37.194 147.224 37.286C147.346 37.3473 147.423 37.516 147.454 37.792C147.546 38.2213 147.699 38.758 147.914 39.402C148.128 40.2913 148.282 41.3187 148.374 42.484C148.496 43.6493 148.604 45.7193 148.696 48.694C148.849 53.018 148.941 55.6553 148.972 56.606C149.002 57.5873 149.002 58.2467 148.972 58.584C148.972 58.8907 148.895 59.1053 148.742 59.228C148.711 59.2587 148.665 59.2893 148.604 59.32C148.573 59.3507 148.542 59.3813 148.512 59.412C148.481 59.4427 148.435 59.458 148.374 59.458C148.098 59.5193 147.883 59.2587 147.73 58.676C147.699 58.5533 147.668 58.4307 147.638 58.308C147.638 58.1547 147.622 58.0013 147.592 57.848C147.592 57.6947 147.592 57.5413 147.592 57.388C147.592 57.02 147.576 56.698 147.546 56.422C147.546 56.146 147.515 55.916 147.454 55.732C147.3 55.4253 147.193 53.3553 147.132 49.522C147.07 44.094 146.871 40.7513 146.534 39.494C146.35 39.0033 146.35 38.5127 146.534 38.022Z" fill="#FFFFFF"/>
<path d="M170.799 42.0532C171.406 38.615 174.889 35.0451 178.032 33.6047C178.974 33.173 179.793 33.2309 180.702 32.9278C182.276 32.403 183.623 31.7036 185.29 31.4738C187.046 31.2316 188.882 31.2231 190.742 31.2231C191.741 31.2231 192.918 31.4381 193.863 31.7245C194.949 32.0535 196.397 32.8025 197.536 32.8025C198.074 32.8025 198.933 33.5287 199.379 33.8554C199.866 34.2127 200.193 34.6209 200.582 35.0587C200.811 35.3164 200.742 35.7288 201.033 35.9111C202.569 36.871 203.644 37.606 204.468 39.3456C204.692 39.818 205.128 40.5906 204.543 40.925C204.184 41.1303 204.385 42.895 204.418 43.3568C204.486 44.3093 205.329 45.368 204.982 46.3401C204.747 46.9961 204.04 47.9195 203.29 47.9195" stroke="#FFFFFF" stroke-width="1.38947" stroke-linecap="round" stroke-linejoin="round"/>
<path d="M171.025 42.2786C170.254 42.966 168.158 44.8926 169.571 45.663C170.23 46.0225 170.212 46.4313 170.473 47.0293C170.943 48.1031 171.274 49.1958 171.927 50.1756" stroke="#FFFFFF" stroke-width="1.38947" stroke-linecap="round" stroke-linejoin="round"/>
<path d="M169.445 42.053C166.126 41.4208 164.603 43.3071 162.802 45.7633C161.788 47.146 161.654 49.1527 162.89 50.3886C164.299 51.7978 165.382 52.4372 167.214 52.7076C171.424 53.3287 175.572 54.3181 179.799 54.8636C181.902 55.1349 184.051 54.8092 186.167 55.0892C189.19 55.4893 192.322 55.5 195.367 55.5781C198.84 55.6671 201.399 55.6246 204.154 53.4597C206.022 51.9924 208.704 51.2766 208.704 48.546C208.704 46.6018 206.274 46.4676 204.869 46.3399" stroke="#FFFFFF" stroke-width="1.38947" stroke-linecap="round" stroke-linejoin="round"/>
<path d="M172.153 51.755L172.379 53.1089" stroke="#FFFFFF" stroke-width="1.38947" stroke-linecap="round" stroke-linejoin="round"/>
<path d="M203.29 50.1756C203.618 52.1828 203.688 54.0649 202.162 55.5913" stroke="#FFFFFF" stroke-width="1.38947" stroke-linecap="round" stroke-linejoin="round"/>
<path d="M162 50.1756C162.701 52.5029 163.65 54.7171 164.306 57.0447C164.779 58.7207 165.827 60.6199 167.089 61.7954C168.889 63.471 170.352 64.5939 172.604 65.4305C176.697 66.9504 181.753 67.3232 186.042 67.3232C188.582 67.3232 190.799 67.2098 193.237 66.4959C195.568 65.8133 198.856 65.0248 200.357 62.8984C202.728 59.5392 205.623 56.6391 207.125 52.8831" stroke="#FFFFFF" stroke-width="1.38947" stroke-linecap="round" stroke-linejoin="round"/>
<path d="M182.624 46.7884C182.66 47.5961 183.203 48.7419 182.757 49.5109C182.42 50.0937 182.034 50.271 181.519 50.6572" stroke="#FFFFFF" stroke-width="1.38947" stroke-linecap="round" stroke-linejoin="round"/>
<path d="M183.361 48.9988C185.364 49.4468 187.258 50.1318 189.338 49.8482C190.011 49.7565 190.482 49.6858 191.093 49.4184C191.539 49.2232 191.973 48.9816 192.387 48.7225" stroke="#FFFFFF" stroke-width="1.38947" stroke-linecap="round" stroke-linejoin="round"/>
<path d="M192.848 46.8805C192.636 47.967 193.165 49.3506 194.322 49.736" stroke="#FFFFFF" stroke-width="1.38947" stroke-linecap="round" stroke-linejoin="round"/>
<path d="M180.231 39.7141C179.357 39.9808 178.705 40.4338 178.551 41.3892C178.413 42.2441 178.479 43.0472 178.895 43.8061C179.483 44.8767 180.871 45.0924 181.954 45.3136C182.903 45.5075 183.85 45.1286 184.433 44.3469C184.928 43.6834 185.75 42.6427 185.261 41.772C184.932 41.1881 184.58 40.4618 183.811 40.3219C183.45 40.2563 183.081 39.9854 182.71 39.9726C182.23 39.956 181.745 39.9726 181.265 39.9726" stroke="#FFFFFF" stroke-width="1.38947" stroke-linecap="round" stroke-linejoin="round"/>
<path d="M192.464 40.0587C191.025 40.0938 190.56 42.3571 191.004 43.4663C191.36 44.3556 192.105 44.9218 193.009 45.1413C194.214 45.4339 194.883 45.2671 196.015 44.6053C197.353 43.8226 197.446 42.1652 196.254 41.2217C195.388 40.5361 194.559 40.231 193.497 40.231" stroke="#FFFFFF" stroke-width="1.38947" stroke-linecap="round" stroke-linejoin="round"/>
<path d="M191.344 42.2985C190.875 44.9074 192.141 42.3165 191.688 42.1931C191.188 42.0565 191.52 42.7315 191.602 43.0164C191.648 43.1766 191.69 43.4051 191.861 43.4855C191.959 43.5317 192.002 43.2253 192.033 43.16C192.161 42.8892 192.304 42.486 192.033 42.3655C191.736 42.2333 191.474 42.5048 191.708 42.7962C191.874 43.0039 191.832 43.3681 191.88 43.6291C191.886 43.6611 192.037 44.1599 191.966 44.0886C191.932 44.0541 192.26 43.8074 192.292 43.7823C192.543 43.5843 192.695 43.2894 192.914 43.0547C193.491 42.4359 192.932 42.1588 192.378 42.1261C191.609 42.0809 191.798 43.3937 192.052 43.8205C192.204 44.0758 192.276 44.2711 192.598 44.28C192.751 44.2843 193.204 44.3179 193.239 44.1077C193.3 43.7446 193.252 43.415 193.239 43.0547C193.211 42.2611 192.66 42.2549 191.947 42.3846" stroke="#FFFFFF" stroke-width="1.38947" stroke-linecap="round" stroke-linejoin="round"/>
<path d="M179.628 42.2986C179.391 43.084 179.574 43.643 179.781 44.4142C179.897 44.8471 180.611 44.5051 180.867 44.3711C181.558 44.0108 180.797 42.3637 180.145 42.2986C179.821 42.2662 179.907 44.2495 180.269 44.4046C180.605 44.5485 180.566 42.5184 180.489 42.2124" stroke="#FFFFFF" stroke-width="1.38947" stroke-linecap="round" stroke-linejoin="round"/>
<path d="M204.61 43.4185C205.071 43.4073 205.26 43.2957 205.577 42.9687C206.075 42.4543 206.528 41.9061 207.051 41.4132C207.527 40.9642 207.959 40.4889 208.41 40.011C208.664 39.7425 208.707 39.3688 208.874 39.0682C208.978 38.8813 208.932 38.5438 208.96 38.3407C209.014 37.9579 209.052 37.7355 209.243 37.3883C209.558 36.8146 210.008 37.7921 210.104 38.0583C210.174 38.2507 210.773 37.7604 210.899 37.6037C211.146 37.2945 211.692 37.3012 211.933 37.0006C212.144 36.7361 213.07 37.9244 213.287 37.9913C213.809 38.152 214 38.2952 214 38.8528C214 39.2032 213.934 39.5858 213.675 39.8195C213.386 40.0792 213.12 40.378 212.799 40.6188C212.155 41.1016 211.543 41.4215 210.798 41.7722C210.347 41.9847 210.177 42.1329 209.884 42.5188C209.66 42.8153 209.318 43.0489 209.042 43.2989C208.747 43.5661 208.544 44.0502 208.228 44.2609C207.774 44.5638 207.437 45.2035 207.003 45.5722C206.325 46.1488 205.463 46.4921 204.782 47.0367" stroke="#FFFFFF" stroke-width="1.38947" stroke-linecap="round" stroke-linejoin="round"/>
<path d="M171.186 50.0516C170.807 50.3414 170.066 50.6958 170.066 51.21C170.066 51.5131 170.066 51.8162 170.066 52.1194" stroke="#FFFFFF" stroke-width="1.38947" stroke-linecap="round" stroke-linejoin="round"/>
<g style="mix-blend-mode:multiply" opacity="0.55">
<path d="M194.671 44.6325L199.044 48.0625L199.126 47.9582C199.213 47.8465 199.281 47.7194 199.299 47.5787C199.36 47.1112 199.346 45.9449 198 44.8897C197.602 44.5769 197.211 43.9952 196.914 43.4777C196.652 43.0226 195.994 42.9455 195.67 43.3586L194.671 44.6325ZM196.474 48.195L193.764 48.8071L196.474 48.195ZM197.609 48.7503L197.774 51.5243L197.609 48.7503ZM200.198 46.9506L197.445 47.326L200.198 46.9506ZM199.472 48.4845L196.138 44.0382L196.032 44.1176C195.918 44.2028 195.82 44.308 195.766 44.4393C195.586 44.8751 195.297 46.0051 196.323 47.3729C196.627 47.7784 196.854 48.4415 197.007 49.0184C197.141 49.5257 197.757 49.7708 198.177 49.4559L199.472 48.4845ZM194.671 44.6325C193.658 45.9234 193.444 47.3937 193.764 48.8071L199.185 47.583C199.173 47.5284 199.199 47.6075 199.168 47.762C199.153 47.836 199.129 47.9053 199.101 47.9643C199.074 48.022 199.05 48.0547 199.044 48.0625L194.671 44.6325ZM193.764 48.8071C193.878 49.312 194.11 49.8691 194.545 50.3651C194.986 50.8677 195.51 51.1645 195.988 51.3296C196.792 51.6074 197.592 51.5352 197.774 51.5243L197.443 45.9763C197.324 45.9834 197.316 45.9809 197.346 45.9821C197.375 45.9833 197.555 45.991 197.803 46.0765C198.079 46.1718 198.425 46.3605 198.723 46.6994C199.014 47.0317 199.137 47.3697 199.185 47.583L193.764 48.8071ZM197.774 51.5243C198.551 51.4779 199.648 51.2599 200.627 50.7409C201.535 50.2596 203.274 48.9422 202.952 46.5751L197.445 47.326C197.417 47.1235 197.426 46.8925 197.489 46.6566C197.552 46.4249 197.651 46.2415 197.746 46.1098C197.919 45.8701 198.073 45.8044 198.024 45.8303C197.992 45.8472 197.902 45.8861 197.759 45.9225C197.618 45.9581 197.499 45.9729 197.443 45.9763L197.774 51.5243ZM202.952 46.5751C202.692 44.6718 201.298 43.5198 199.824 43.2081C198.532 42.9348 197.163 43.2692 196.138 44.0382L199.472 48.4845C199.271 48.6354 199.017 48.7181 198.675 48.6457C198.47 48.6025 198.172 48.4855 197.899 48.2107C197.61 47.919 197.479 47.58 197.445 47.326L202.952 46.5751Z" fill="#FFBFBF"/>
</g>
<g style="mix-blend-mode:multiply" opacity="0.55">
<path d="M173.565 45.0127L178.971 46.3037L179.002 46.1748C179.035 46.0368 179.043 45.8931 179.001 45.7575C178.861 45.3074 178.362 44.2534 176.699 43.8562C176.205 43.7385 175.608 43.3731 175.121 43.027C174.694 42.7225 174.063 42.9274 173.941 43.438L173.565 45.0127ZM176.89 48.1376L175.154 50.3076L176.89 48.1376ZM178.039 48.286L180.233 49.9921L178.039 48.286ZM179.068 48.1567L176.451 49.0914L179.068 48.1567ZM176.716 49.2602L180.646 45.3302L180.552 45.2365C180.452 45.1361 180.334 45.0538 180.196 45.0187C179.739 44.9024 178.58 44.7762 177.371 45.9852C177.012 46.3436 176.388 46.6618 175.838 46.8948C175.355 47.0997 175.2 47.7442 175.571 48.1154L176.716 49.2602ZM173.565 45.0127C173.27 46.2488 173.161 48.7125 175.154 50.3076L178.626 45.9676C178.745 46.0621 178.829 46.1715 178.883 46.2688C178.934 46.3606 178.95 46.4264 178.953 46.4457C178.957 46.4644 178.953 46.4558 178.955 46.4196C178.956 46.3841 178.962 46.3426 178.971 46.3037L173.565 45.0127ZM175.154 50.3076C175.637 50.6933 176.259 50.9735 176.848 51.1075C177.162 51.1789 177.648 51.2513 178.209 51.1662C178.802 51.0763 179.621 50.7792 180.233 49.9921L175.846 46.5799C176.339 45.946 176.983 45.7307 177.376 45.6712C177.736 45.6166 177.994 45.6682 178.08 45.6879C178.187 45.7123 178.261 45.742 178.311 45.7654C178.347 45.782 178.465 45.8386 178.626 45.9676L175.154 50.3076ZM180.233 49.9921C179.962 50.3401 179.586 50.6216 179.142 50.782C178.727 50.9318 178.369 50.9353 178.151 50.9169C177.792 50.8867 177.557 50.7665 177.698 50.8253C177.707 50.8291 177.717 50.8332 177.732 50.8396C177.745 50.8452 177.765 50.8535 177.785 50.8619C177.822 50.8775 177.889 50.9052 177.967 50.9339C178.04 50.9609 178.17 51.0068 178.332 51.0465C178.475 51.0817 178.776 51.1465 179.157 51.1313C179.547 51.1157 180.228 51.0052 180.862 50.4769C181.525 49.924 181.772 49.2192 181.846 48.723C181.915 48.2701 181.859 47.9017 181.822 47.7166C181.782 47.5092 181.727 47.3373 181.685 47.2221L176.451 49.0914C176.436 49.0485 176.398 48.9372 176.367 48.7801C176.341 48.6452 176.287 48.3168 176.351 47.895C176.421 47.4299 176.656 46.7473 177.301 46.2091C177.917 45.6955 178.574 45.5922 178.936 45.5778C179.288 45.5638 179.554 45.6237 179.659 45.6493C179.781 45.6794 179.868 45.7111 179.894 45.7206C179.919 45.73 179.966 45.7494 179.84 45.6969C179.744 45.6567 179.236 45.4307 178.617 45.3786C178.27 45.3494 177.784 45.3629 177.253 45.555C176.692 45.7577 176.208 46.1137 175.846 46.5799L180.233 49.9921ZM181.685 47.2221C181.7 47.2621 181.706 47.2931 181.702 47.276C181.701 47.268 181.699 47.2592 181.694 47.2402C181.691 47.2244 181.685 47.1968 181.678 47.1677C181.664 47.1093 181.641 47.0115 181.606 46.8973C181.529 46.6413 181.41 46.3491 181.218 46.042C181.038 45.753 180.835 45.5191 180.646 45.3302L176.716 49.2602C176.693 49.2378 176.604 49.1454 176.505 48.9873C176.455 48.907 176.409 48.8209 176.37 48.7309C176.33 48.6418 176.304 48.5645 176.287 48.5079C176.271 48.4558 176.263 48.4212 176.265 48.4287C176.266 48.4326 176.267 48.4386 176.271 48.4574C176.275 48.4729 176.281 48.4997 176.288 48.5283C176.317 48.6578 176.366 48.8537 176.451 49.0914L181.685 47.2221Z" fill="#FFBFBF"/>
</g>
</svg>
